<svg width="480" height="482" viewBox="0 0 480 482" fill="none" xmlns="http://www.w3.org/2000/svg">
<g clip-path="url(#clip0_160_9)">
<path d="M371.2 161H328.8C323.9 161 319.2 158.9 315.9 155.2L298.7 135.8C296.1 132.9 292.5 131.2 288.6 131.2C284.7 131.2 281.1 132.9 278.5 135.8L263.7 152.5C258.9 157.9 251.9 161.1 244.7 161.1H12.6C6 179.8 1.7 199.7 0 220.4H219.1C223 220.4 226.6 218.8 229.3 216L249.7 194.7C252.2 192 255.8 190.5 259.4 190.5H260.2C264.1 190.5 267.7 192.2 270.3 195.1L287.5 214.5C290.8 218.2 295.5 220.3 300.4 220.3H479.2C477.5 199.7 473.2 179.7 466.6 160.9L371.2 161Z" fill="white"/>
<path d="M132.601 345.2C136.501 345.2 140.101 343.6 142.801 340.8L163.201 319.5C165.801 316.8 169.301 315.3 173.001 315.3H173.801C177.701 315.3 181.401 317 183.901 319.8L201.101 339.2C204.401 342.9 209.101 345 214.001 345H456.401C465.501 326.2 472.101 306.1 476.101 285H243.401C238.501 285 233.801 282.9 230.501 279.2L213.301 260C210.701 257.1 207.101 255.5 203.201 255.5C199.301 255.5 195.601 257.2 193.101 260L178.301 276.7C173.501 282.2 166.501 285.3 159.201 285.3H3.30078C7.30078 306.4 13.9008 326.5 23.0008 345.3L132.601 345.2Z" fill="white"/>
<path d="M304.501 96.1C308.401 96.1 312.001 94.5 314.701 91.7L335.101 70.4C337.601 67.7 341.201 66.2 344.901 66.2H345.701C349.601 66.2 353.201 67.9 355.801 70.8L373.001 90.3C376.301 94 381.001 96.1 385.901 96.1H432.001C388.101 37.7 318.301 0 239.701 0C161.101 0 91.2008 37.7 47.3008 96.1H304.501Z" fill="white"/>
<path d="M212.001 404.7H149.001C144.101 404.7 139.401 402.6 136.101 398.9L118.901 379.5C116.301 376.6 112.701 375 108.801 375C104.901 375 101.201 376.7 98.7008 379.5L83.9008 396.2C79.1008 401.7 72.1008 404.8 64.8008 404.8H63.8008C107.701 451.8 170.201 481.3 239.701 481.3C309.201 481.3 371.601 451.8 415.601 404.8L212.001 404.7Z" fill="white"/>
</g>
<defs>
<clipPath id="clip0_160_9">
<rect width="479.3" height="481.2" fill="white"/>
</clipPath>
</defs>
</svg>
