<svg width="1316" height="1290" viewBox="0 0 1316 1290" fill="none" xmlns="http://www.w3.org/2000/svg">
<path d="M145.531 641.774C149.121 645.445 425.211 660.324 425.211 660.324L675.551 415.529L353.737 408.99L145.531 641.774Z" fill="#304957"/>
<path d="M257.62 570.029C305.108 518.32 419.193 384.943 433.515 299.791C348.067 312.199 212.169 423.268 159.409 469.585C140.795 485.926 124.564 503.618 111.266 521.651L0.432631 671.939C-3.21012 697.64 25.9826 727.496 51.7563 724.43L204.489 616.994C222.815 604.103 240.865 588.271 257.62 570.029Z" fill="#F3D05B"/>
<path d="M49.0457 662.088C41.5666 653.887 33.9277 644.936 27.4035 635.301L0.729506 671.471C-2.91324 697.169 26.2795 727.027 52.0513 723.962L90.1817 697.141C74.528 688.386 61.0341 675.232 49.0457 662.088Z" fill="#5E889F"/>
<path d="M510.463 412.176L504.021 412.044L510.463 412.174V412.176Z" fill="#E0E0E0"/>
<path d="M309.524 653.773L261.773 650.907L495.191 411.867L504.026 412.046L510.467 412.177C465.28 467.151 421.727 523.738 375.007 577.883C353.18 603.179 331.35 628.477 309.524 653.773Z" fill="#2A404C"/>
<path d="M637.591 1145.02C634.002 1141.35 625.322 864.987 625.322 864.987L875.662 620.193L874.978 942.086L637.591 1145.02Z" fill="#304957"/>
<path d="M711.827 1034.57C764.585 988.251 900.485 877.183 985.933 864.774C971.61 949.927 857.524 1083.3 810.038 1135.01C793.283 1153.26 775.231 1169.09 756.906 1181.98L604.172 1289.41C578.399 1292.48 549.206 1262.62 552.849 1236.92L663.682 1086.64C676.98 1068.6 693.213 1050.91 711.827 1034.57Z" fill="#F3D05B"/>
<path d="M615.121 1241.03C623.152 1248.69 631.928 1256.53 641.415 1263.27L604.657 1289.13C578.883 1292.19 549.69 1262.34 553.333 1236.63L581.003 1199.12C589.403 1214.96 602.251 1228.75 615.121 1241.03Z" fill="#5E889F"/>
<path d="M631.072 1028.6L630.072 1001.99C659.53 977.703 688.988 953.414 718.445 929.127C757.463 896.955 797.676 866.386 837.671 835.707L631.072 1028.6Z" fill="#2A404C"/>
<path d="M425.932 1046.91L265.367 882.693L305.296 843.649L465.861 1007.87L425.932 1046.91Z" fill="#304957"/>
<path d="M404.208 1098.18L211.484 901.077L263.071 873.955L432.48 1047.22L404.208 1098.18Z" fill="#5E889F"/>
<path d="M1087.24 608.714C1184.76 487.442 1255.34 344.051 1295.36 193.904C1310.6 136.723 1320.53 57.3137 1313.65 3.57658C1260.08 -4.51716 1180.47 3.62912 1122.96 17.5836C971.961 54.2253 827.03 121.579 703.603 216.354C572.349 317.14 481.957 453.93 375.004 577.881C322.445 638.792 269.887 699.704 217.328 760.618L374.776 921.645L532.223 1082.67C594.296 1031.49 656.371 980.312 718.444 929.131C844.758 824.982 983.536 737.679 1087.24 608.714Z" fill="#AE4845"/>
<path d="M408.678 1125.65L186.26 898.176C185.102 896.992 185.125 895.091 186.311 893.932L196.123 884.338C197.309 883.176 199.209 883.197 200.367 884.379L422.787 1111.86C423.945 1113.04 423.922 1114.94 422.736 1116.1L412.922 1125.7C411.736 1126.86 409.836 1126.84 408.678 1125.65Z" fill="#304957"/>
<path d="M435.781 1037.28L294.377 854.324L294.45 854.253L301.83 847.037L311.57 857.001L462.394 1011.25L435.781 1037.28Z" fill="#293E4A"/>
<path d="M217.327 760.622L216.162 759.428L263.048 707.633C247.808 725.298 232.569 742.959 217.327 760.622Z" fill="#D8DDDF"/>
<path d="M462.395 1011.25L314.365 859.858L374.777 921.644L462.395 1011.25Z" fill="#304957"/>
<path d="M531.057 1081.48L462.394 1011.26L374.776 921.649L314.365 859.863L301.829 847.042L217.328 760.622C232.57 742.959 247.808 725.298 263.049 707.633L293.651 673.828L623.399 1005.68L531.057 1081.48Z" fill="#964848"/>
<path d="M462.395 1011.25L311.57 857.001L314.365 859.858L462.395 1011.25Z" fill="#2A404C"/>
<path d="M314.365 859.863L311.57 857.006L301.83 847.042L314.365 859.863Z" fill="#813F40"/>
<path d="M27.4043 635.3C27.4043 635.3 66.6832 688.979 90.1825 697.141L109.774 683.628C109.774 683.628 65.0272 649.127 42.5335 614.859L27.4043 635.3Z" fill="#AE4845"/>
<path d="M573.365 1206.59C573.365 1206.59 612.646 1260.27 636.145 1268.43L655.737 1254.92C655.737 1254.92 610.99 1220.42 588.496 1186.15L573.365 1206.59Z" fill="#AE4845"/>
<path d="M1251.77 325.293C1268.92 282.356 1283.5 238.433 1295.36 193.906C1310.6 136.725 1320.54 57.316 1313.65 3.57697C1260.08 -4.51489 1180.47 3.63341 1122.96 17.586C1078.83 28.2962 1035.22 41.6493 992.504 57.5247C1037.29 119.248 1119.25 217.026 1251.77 325.293Z" fill="#304957"/>
<path d="M1015.1 511.351C955.284 572.958 856.935 574.497 795.437 514.788C733.939 455.08 732.578 356.735 792.398 295.128C852.217 233.522 950.564 231.983 1012.06 291.692C1073.56 351.4 1074.92 449.745 1015.1 511.351Z" fill="#ADCBDA"/>
<path d="M926.014 249.453C921.901 248.869 917.774 248.449 913.635 248.194L913.749 247.192C917.86 247.78 921.952 248.534 926.014 249.453Z" fill="#BE6D6A"/>
<path d="M891.042 556.301C886.887 556.301 882.734 556.135 878.59 555.803L913.636 248.192C917.775 248.447 921.902 248.867 926.015 249.451C952.881 255.526 978.455 268.83 999.652 289.41C1061.15 349.117 1062.51 447.464 1002.69 509.071C972.17 540.504 931.613 556.301 891.042 556.301Z" fill="#BDD5E1"/>
<path d="M1004.74 299.236C947.495 243.656 855.618 245.092 799.932 302.44C744.248 359.788 745.52 451.663 802.767 507.244C860.015 562.827 951.892 561.389 1007.58 504.041C1063.26 446.693 1061.99 354.818 1004.74 299.236ZM788.117 522.332C722.564 458.688 721.107 353.486 784.872 287.819C848.635 222.15 953.841 220.505 1019.39 284.148C1084.95 347.792 1086.4 452.996 1022.64 518.665C958.875 584.332 853.669 585.979 788.117 522.332Z" fill="#304957"/>
</svg>
